<?xml version="1.0" standalone="no"?>
<!DOCTYPE svg PUBLIC "-//W3C//DTD SVG 20010904//EN"
 "http://www.w3.org/TR/2001/REC-SVG-20010904/DTD/svg10.dtd">
<svg version="1.0" xmlns="http://www.w3.org/2000/svg"
 width="600.000000pt" height="480.000000pt" viewBox="0 0 600.000000 480.000000"
 preserveAspectRatio="xMidYMid meet">

<g transform="translate(0.000000,480.000000) scale(0.100000,-0.100000)"
fill="#000000" stroke="none">
<path d="M3135 4303 c-118 -16 -255 -77 -357 -158 -104 -83 -196 -230 -235
-375 -23 -87 -22 -262 1 -350 52 -192 193 -367 366 -455 103 -52 186 -70 325
-69 113 0 141 4 210 27 113 38 198 90 285 177 87 87 139 172 177 285 24 71 27
95 27 215 0 119 -3 144 -27 215 -109 328 -435 534 -772 488z m-221 -214 l28
-41 -65 -67 c-35 -36 -78 -94 -95 -127 -176 -349 72 -754 461 -755 103 0 175
17 254 62 l52 28 32 -40 c41 -52 36 -62 -62 -111 -97 -50 -173 -68 -284 -68
-116 0 -198 20 -299 72 -253 132 -388 433 -317 710 34 132 114 258 213 336 29
23 54 42 54 42 1 0 14 -18 28 -41z"/>
<path d="M2513 3139 l-72 -49 -28 40 c-15 22 -32 40 -36 40 -8 0 -619 -391
-640 -410 -7 -6 107 -246 136 -284 14 -19 23 -15 213 110 110 72 261 168 337
214 75 46 137 87 137 92 0 4 -11 26 -25 48 -14 22 -25 44 -25 49 0 5 30 31 68
57 37 26 69 49 71 50 2 2 -37 60 -58 86 -4 3 -38 -16 -78 -43z"/>
<path d="M3032 2640 c-95 -13 -210 -45 -294 -79 -162 -68 -349 -216 -481 -381
l-59 -74 38 -34 c60 -52 190 -135 293 -186 446 -225 1001 -223 1456 4 77 38
172 94 212 122 l71 53 -47 68 c-186 266 -438 433 -745 492 -96 19 -355 28
-444 15z"/>
<path d="M1560 1317 c0 -106 -4 -157 -12 -165 -17 -17 -73 -15 -88 3 -10 13
-17 12 -52 -6 -37 -19 -39 -22 -26 -41 57 -85 215 -70 258 24 17 36 20 66 20
191 l0 147 -50 0 -50 0 0 -153z"/>
<path d="M1818 1450 c-152 -81 -150 -297 3 -374 135 -67 281 10 305 161 13 82
-46 187 -123 220 -47 19 -141 16 -185 -7z m146 -85 c59 -28 81 -96 51 -155
-20 -39 -53 -60 -93 -60 -101 0 -157 107 -95 180 42 51 82 61 137 35z"/>
<path d="M2180 1266 l0 -206 110 0 c125 0 160 11 185 60 19 38 19 109 -1 138
-13 18 -13 28 -3 56 15 42 6 78 -30 119 l-29 32 -116 3 -116 4 0 -206z m204
91 c16 -27 -18 -49 -69 -45 -37 3 -40 5 -43 36 l-3 33 52 -3 c37 -2 55 -8 63
-21z m6 -141 c6 -8 10 -25 8 -38 -3 -21 -9 -23 -65 -26 l-63 -3 0 34 c0 18 3
37 7 40 13 13 100 7 113 -7z"/>
<path d="M2720 1317 c0 -106 -4 -157 -12 -165 -17 -17 -64 -15 -82 4 -14 14
-20 13 -56 -9 l-41 -24 35 -31 c78 -68 196 -49 241 38 11 22 15 67 15 185 l0
155 -50 0 -50 0 0 -153z"/>
<path d="M2979 1447 c-126 -67 -147 -244 -39 -341 144 -130 364 -16 348 179
-9 108 -95 185 -208 185 -40 0 -70 -7 -101 -23z m151 -82 c42 -21 60 -53 60
-103 0 -37 -6 -50 -34 -78 -28 -28 -42 -34 -75 -34 -49 0 -105 44 -115 91 -8
42 16 95 56 119 39 24 69 25 108 5z"/>
<path d="M3300 1425 l0 -45 55 0 55 0 0 -160 0 -160 45 0 44 0 3 158 3 157 53
3 52 3 0 45 0 44 -155 0 -155 0 0 -45z"/>
<path d="M3650 1425 l0 -45 55 0 55 0 0 -160 0 -160 45 0 45 0 0 160 0 160 55
0 55 0 0 45 0 45 -155 0 -155 0 0 -45z"/>
<path d="M3990 1265 l0 -205 130 0 130 0 0 45 0 45 -80 0 -80 0 0 35 0 35 70
0 70 0 0 45 0 45 -70 0 -70 0 0 35 0 35 80 0 80 0 0 45 0 45 -130 0 -130 0 0
-205z"/>
<path d="M4310 1265 l0 -205 45 0 45 0 0 65 c0 65 0 65 28 65 24 0 33 -9 63
-62 l34 -63 59 -3 58 -3 -19 33 c-11 18 -30 52 -43 75 l-23 42 26 30 c55 65
40 160 -32 208 -30 20 -47 23 -137 23 l-104 0 0 -205z m205 91 c30 -45 -11
-82 -81 -74 -27 3 -29 6 -32 51 l-3 47 50 0 c42 0 53 -4 66 -24z"/>
</g>
</svg>
